# xmcd
#
# Track frame offsets: 
#        150
#        14017
#        30497
#        41329
#        58663
#        73430
#        89423
#        108173
#        122428
#        136741
#        149364
#
# Disc length: 2190 seconds
#
# Revision: 1
# Processed by: cddbd v1.5.2PL0 Copyright (c) Steve Scherf et al.
# Submitted via: ExactAudioCopyFreeDBPlugin 1.0
#
DISCID=96088c0b
DTITLE=Bap Kennedy - Sailor's Revenge, The {Limited Deluxe Edition Wit
DTITLE=h Bonus CD} [CD 2)
DYEAR=2012
DGENRE=Americana
TTITLE0=Moonlight Kiss
TTITLE1=Unforgiven
TTITLE2=On The Mighty Ocean Alcohol
TTITLE3=Milky Way
TTITLE4=Loverman
TTITLE5=The Way I Love Her
TTITLE6=Howl On
TTITLE7=The Sweet Smell Of Success
TTITLE8=Into The Arms Of Love
TTITLE9=Be True To Your Heart
TTITLE10=Moriarty's Blues (alternate version)
EXTD=
EXTT0=
EXTT1=
EXTT2=
EXTT3=
EXTT4=
EXTT5=
EXTT6=
EXTT7=
EXTT8=
EXTT9=
EXTT10=
PLAYORDER=
